<svg xmlns="http://www.w3.org/2000/svg" fill="none" viewBox="0 0 500 500">
    <defs>
        <radialGradient
            id="paint0_radial"
            cx="0"
            cy="0"
            r="1"
            gradientTransform="rotate(-131.068 306.996 118.648) scale(539.276 404.137)"
            gradientUnits="userSpaceOnUse"
        >
            <stop stop-color="#FF5F40" />
            <stop offset=".511" stop-color="#F72585" />
            <stop offset="1" stop-color="#7209B7" />
            <stop offset="1" stop-color="#7209B7" />
        </radialGradient>
    </defs>
    <rect width="500" height="500" fill="#fff" rx="250" />
    <circle cx="250" cy="250" r="250" fill="url(#paint0_radial)" />
    <path
        fill="#fff"
        fill-rule="evenodd"
        d="M169.508 348.433a77.45 77.45 0 0010.061 6.498c-19.798 13.716-36.321 35.632-49.569 65.746l.154-5.085.146-5.122.136-5.159.126-5.195c.021-.869.041-1.739.06-2.611l.113-5.251.053-2.639.099-5.305.09-5.342c.015-.894.028-1.789.042-2.685l.076-5.397.035-2.713.062-5.452.028-2.74.048-5.507.021-2.768.034-5.562.014-2.795.021-5.617.014-8.495-.002-5.709-.011-5.746-.021-5.783-.048-8.743-.021-2.932c7.841 18.433 20.987 34.987 38.239 48.109zM130.421 221.74c13.582-64.849 89.513-105.86 147.043-73.715 58.155 32.494 66.761 105.085 43.408 155.286-21.789 46.837-76.974 77.896-129.609 56.72 39.606 13.412 86.731-7.275 107.414-49.669 24.657-50.54 12.736-114.256-33.458-141.143-46.195-26.887-106.291-6.787-130.948 43.753a118.124 118.124 0 00-3.383 7.594l-.467 1.174z"
        clip-rule="evenodd"
    />
    <path
        fill="#fff"
        fill-rule="evenodd"
        d="M153.924 154.7c36.244-57.718 123.693-61.28 174.062-11.04 49.865 49.739 42.946 127.508 8.719 174.241l-1.046 1.406c-36.473 49.897-96.491 66.952-144.506 40.705 42.196 15.88 90.243 1.892 119.052-39.389 36.549-52.373 27.455-131.712-15.422-169.784-39.07-34.693-104.627-31.966-143.612 8.419.891-1.535 1.81-3.055 2.753-4.558z"
        clip-rule="evenodd"
    />
    <path
        fill="#fff"
        fill-rule="evenodd"
        d="M175.385 114.677c36.523-39.937 130.18-56.116 183.283 3.868 53.102 59.985 53.102 145.032 5.493 208.742-41.575 55.634-131.49 60.528-172.259 33.129a101.537 101.537 0 0033.515 9.47c38.184 3.91 79.518-11.983 107.415-47.172 46.77-58.993 38.009-145.011-5.476-189.248C283.87 89.229 222.304 83.38 174.467 116.93a100.21 100.21 0 00-2.641 1.917 80.32 80.32 0 013.559-4.17z"
        clip-rule="evenodd"
    />
</svg>
