<svg xmlns="http://www.w3.org/2000/svg" viewBox="0 0 336 425">
    <path fill="#ffffff" d="M1.58 275.037c9.757 22.907 26.116 43.478 47.585 59.785a96.346 96.346 0 0012.521 8.075C37.05 359.94 16.486 387.177 0 424.599l.192-6.32.18-6.365.17-6.41.158-6.456.074-3.246.14-6.524.067-3.28.123-6.593.112-6.638.052-3.337.095-6.707.043-3.37.077-6.776.035-3.405.06-6.843c.01-1.145.018-2.291.026-3.44l.043-6.912.017-3.473.026-6.98.018-10.557-.003-7.095-.014-7.14-.026-7.186-.06-10.865-.025-3.644zM284.564 49.143c66.083 74.541 66.083 180.229 6.836 259.4-51.737 69.136-163.631 75.219-214.367 41.17l.058.032c-.33-.176-.66-.354-.989-.534l1.268.472c-.377-.147-.754-.297-1.131-.448 49.287 16.667 107.931-9.04 133.67-61.724 30.684-62.805 15.85-141.984-41.637-175.396-57.486-33.413-132.273-8.435-162.957 54.37a147.221 147.221 0 00-4.21 9.438l-.58 1.458c16.9-80.587 111.393-131.55 182.986-91.605 48.829 27.245 69.588 77.173 69 125.934 1.496-47.064-15.386-94.008-47.447-122.437C156.443 46.161 74.86 49.55 26.346 99.736a189.251 189.251 0 013.426-5.664c45.104-71.726 153.93-76.153 216.61-13.72 42.118 41.952 51.683 99.95 40.164 151.045 13.875-60.403-2.799-124.96-40.948-163.713-54.115-54.972-130.731-62.24-190.261-20.549-1.114.78-2.21 1.575-3.287 2.383a100.639 100.639 0 014.429-5.182c45.45-49.63 162.002-69.735 228.085 4.807z"/>
  </svg>
  